# xmcd
#
# Track frame offsets:
#	150
#	22797
#	40716
#	56135
#	70563
#	84768
#	99825
#	114106
#	143322
#
# Disc length: 2229 seconds
#
# Revision: 1
# Processed by: cddbd v1.4PL0 Copyright (c) Steve Scherf et al.
# Submitted via: audiograbber 1.81.03
#
DISCID=5408b309
DTITLE=Stew Moss - Ain't Too Fat To Boogie
DYEAR=1997
DGENRE=Blues
TTITLE0=Black Sheep Charlie
TTITLE1=Ain't Too Fat to Boogie
TTITLE2=Big Red Gal
TTITLE3=Boondocks Baby
TTITLE4=Cadillac Ranch
TTITLE5=Strings Attached
TTITLE6=Oh Sama
TTITLE7=Don't Feed Your Hogs Clay Pigeons
TTITLE8=Nowhere Town
EXTD=
EXTT0=
EXTT1=
EXTT2=
EXTT3=
EXTT4=
EXTT5=
EXTT6=
EXTT7=
EXTT8=
PLAYORDER=
